{
	"patcher" : 	{
		"fileversion" : 1,
		"appversion" : 		{
			"major" : 8,
			"minor" : 0,
			"revision" : 2,
			"architecture" : "x64",
			"modernui" : 1
		}
,
		"classnamespace" : "box",
		"rect" : [ 289.0, 144.0, 1057.0, 653.0 ],
		"bglocked" : 0,
		"openinpresentation" : 0,
		"default_fontsize" : 12.0,
		"default_fontface" : 0,
		"default_fontname" : "Arial",
		"gridonopen" : 1,
		"gridsize" : [ 15.0, 15.0 ],
		"gridsnaponopen" : 1,
		"objectsnaponopen" : 1,
		"statusbarvisible" : 2,
		"toolbarvisible" : 1,
		"lefttoolbarpinned" : 0,
		"toptoolbarpinned" : 0,
		"righttoolbarpinned" : 0,
		"bottomtoolbarpinned" : 0,
		"toolbars_unpinned_last_save" : 0,
		"tallnewobj" : 0,
		"boxanimatetime" : 200,
		"enablehscroll" : 1,
		"enablevscroll" : 1,
		"devicewidth" : 0.0,
		"description" : "",
		"digest" : "",
		"tags" : "",
		"style" : "Sky",
		"subpatcher_template" : "",
		"boxes" : [ 			{
				"box" : 				{
					"id" : "obj-60",
					"linecount" : 2,
					"maxclass" : "comment",
					"numinlets" : 1,
					"numoutlets" : 0,
					"patching_rect" : [ 893.0, 526.5, 150.0, 33.0 ],
					"text" : "This script changes the fftSize and overlap"
				}

			}
, 			{
				"box" : 				{
					"id" : "obj-58",
					"maxclass" : "newobj",
					"numinlets" : 1,
					"numoutlets" : 1,
					"outlettype" : [ "" ],
					"patcher" : 					{
						"fileversion" : 1,
						"appversion" : 						{
							"major" : 8,
							"minor" : 0,
							"revision" : 2,
							"architecture" : "x64",
							"modernui" : 1
						}
,
						"classnamespace" : "box",
						"rect" : [ 59.0, 81.0, 1820.0, 505.0 ],
						"bglocked" : 0,
						"openinpresentation" : 0,
						"default_fontsize" : 12.0,
						"default_fontface" : 0,
						"default_fontname" : "Arial",
						"gridonopen" : 1,
						"gridsize" : [ 15.0, 15.0 ],
						"gridsnaponopen" : 1,
						"objectsnaponopen" : 1,
						"statusbarvisible" : 2,
						"toolbarvisible" : 1,
						"lefttoolbarpinned" : 0,
						"toptoolbarpinned" : 0,
						"righttoolbarpinned" : 0,
						"bottomtoolbarpinned" : 0,
						"toolbars_unpinned_last_save" : 0,
						"tallnewobj" : 0,
						"boxanimatetime" : 200,
						"enablehscroll" : 1,
						"enablevscroll" : 1,
						"devicewidth" : 0.0,
						"description" : "",
						"digest" : "",
						"tags" : "",
						"style" : "Sky",
						"subpatcher_template" : "",
						"boxes" : [ 							{
								"box" : 								{
									"id" : "obj-32",
									"maxclass" : "newobj",
									"numinlets" : 1,
									"numoutlets" : 1,
									"outlettype" : [ "" ],
									"patching_rect" : [ 914.0, 160.5, 57.0, 22.0 ],
									"text" : "tosymbol"
								}

							}
, 							{
								"box" : 								{
									"id" : "obj-33",
									"linecount" : 2,
									"maxclass" : "newobj",
									"numinlets" : 2,
									"numoutlets" : 1,
									"outlettype" : [ "" ],
									"patching_rect" : [ 913.0, 123.5, 84.0, 35.0 ],
									"text" : "sprintf pfft~ fftjit.ifft %d %d"
								}

							}
, 							{
								"box" : 								{
									"id" : "obj-34",
									"linecount" : 3,
									"maxclass" : "message",
									"numinlets" : 2,
									"numoutlets" : 1,
									"outlettype" : [ "" ],
									"patching_rect" : [ 914.0, 190.5, 365.0, 49.0 ],
									"text" : "delete fftOut2, newobject newobj @text $1 @varname fftOut2 @patching_rect 427.5 342. 112. 22., connect shuffle 1 fftOut2 0, connect fftOut2 0 out2 0"
								}

							}
, 							{
								"box" : 								{
									"id" : "obj-29",
									"maxclass" : "newobj",
									"numinlets" : 1,
									"numoutlets" : 1,
									"outlettype" : [ "" ],
									"patching_rect" : [ 420.0, 167.0, 57.0, 22.0 ],
									"text" : "tosymbol"
								}

							}
, 							{
								"box" : 								{
									"id" : "obj-30",
									"maxclass" : "newobj",
									"numinlets" : 2,
									"numoutlets" : 1,
									"outlettype" : [ "" ],
									"patching_rect" : [ 419.0, 130.0, 147.0, 22.0 ],
									"text" : "sprintf pfft~ fftjit.ifft %d %d"
								}

							}
, 							{
								"box" : 								{
									"id" : "obj-31",
									"linecount" : 2,
									"maxclass" : "message",
									"numinlets" : 2,
									"numoutlets" : 1,
									"outlettype" : [ "" ],
									"patching_rect" : [ 420.0, 204.0, 446.0, 35.0 ],
									"text" : "delete fftOut1, newobject newobj @text $1 @varname fftOut1 @patching_rect 10. 351. 112. 22., connect shuffle 0 fftOut1 0, connect fftOut1 0 out1 0"
								}

							}
, 							{
								"box" : 								{
									"id" : "obj-23",
									"maxclass" : "newobj",
									"numinlets" : 1,
									"numoutlets" : 1,
									"outlettype" : [ "" ],
									"patching_rect" : [ 51.0, 167.0, 57.0, 22.0 ],
									"text" : "tosymbol"
								}

							}
, 							{
								"box" : 								{
									"id" : "obj-20",
									"maxclass" : "newobj",
									"numinlets" : 2,
									"numoutlets" : 1,
									"outlettype" : [ "" ],
									"patching_rect" : [ 50.0, 130.0, 144.0, 22.0 ],
									"text" : "sprintf pfft~ fftjit.fft %d %d"
								}

							}
, 							{
								"box" : 								{
									"id" : "obj-19",
									"linecount" : 3,
									"maxclass" : "message",
									"numinlets" : 2,
									"numoutlets" : 1,
									"outlettype" : [ "" ],
									"patching_rect" : [ 51.0, 197.0, 341.0, 49.0 ],
									"text" : "delete fftin, newobject newobj @text $1 @varname fftin @patching_rect 10. 110. 109. 22., connect in 0 fftin 0, connect fftin 0 shuffle 0"
								}

							}
, 							{
								"box" : 								{
									"id" : "obj-16",
									"maxclass" : "newobj",
									"numinlets" : 2,
									"numoutlets" : 2,
									"outlettype" : [ "", "" ],
									"patching_rect" : [ 50.0, 100.0, 60.0, 22.0 ],
									"text" : "zl.change"
								}

							}
, 							{
								"box" : 								{
									"comment" : "",
									"id" : "obj-56",
									"index" : 1,
									"maxclass" : "inlet",
									"numinlets" : 0,
									"numoutlets" : 1,
									"outlettype" : [ "" ],
									"patching_rect" : [ 50.0, 40.0, 30.0, 30.0 ]
								}

							}
, 							{
								"box" : 								{
									"comment" : "",
									"id" : "obj-57",
									"index" : 1,
									"maxclass" : "outlet",
									"numinlets" : 1,
									"numoutlets" : 0,
									"patching_rect" : [ 51.0, 420.0, 30.0, 30.0 ]
								}

							}
 ],
						"lines" : [ 							{
								"patchline" : 								{
									"destination" : [ "obj-20", 0 ],
									"order" : 2,
									"source" : [ "obj-16", 0 ]
								}

							}
, 							{
								"patchline" : 								{
									"destination" : [ "obj-30", 0 ],
									"order" : 1,
									"source" : [ "obj-16", 0 ]
								}

							}
, 							{
								"patchline" : 								{
									"destination" : [ "obj-33", 0 ],
									"order" : 0,
									"source" : [ "obj-16", 0 ]
								}

							}
, 							{
								"patchline" : 								{
									"destination" : [ "obj-57", 0 ],
									"source" : [ "obj-19", 0 ]
								}

							}
, 							{
								"patchline" : 								{
									"destination" : [ "obj-23", 0 ],
									"source" : [ "obj-20", 0 ]
								}

							}
, 							{
								"patchline" : 								{
									"destination" : [ "obj-19", 0 ],
									"source" : [ "obj-23", 0 ]
								}

							}
, 							{
								"patchline" : 								{
									"destination" : [ "obj-31", 0 ],
									"source" : [ "obj-29", 0 ]
								}

							}
, 							{
								"patchline" : 								{
									"destination" : [ "obj-29", 0 ],
									"source" : [ "obj-30", 0 ]
								}

							}
, 							{
								"patchline" : 								{
									"destination" : [ "obj-57", 0 ],
									"source" : [ "obj-31", 0 ]
								}

							}
, 							{
								"patchline" : 								{
									"destination" : [ "obj-34", 0 ],
									"source" : [ "obj-32", 0 ]
								}

							}
, 							{
								"patchline" : 								{
									"destination" : [ "obj-32", 0 ],
									"source" : [ "obj-33", 0 ]
								}

							}
, 							{
								"patchline" : 								{
									"destination" : [ "obj-57", 0 ],
									"source" : [ "obj-34", 0 ]
								}

							}
, 							{
								"patchline" : 								{
									"destination" : [ "obj-16", 0 ],
									"source" : [ "obj-56", 0 ]
								}

							}
 ],
						"styles" : [ 							{
								"name" : "Sky",
								"default" : 								{
									"selectioncolor" : [ 0.862745, 0.870588, 0.878431, 1.0 ],
									"textcolor_inverse" : [ 1.0, 1.0, 1.0, 1.0 ],
									"patchlinecolor" : [ 0.0, 0.0, 0.0, 0.9 ],
									"textcolor" : [ 0.0, 0.0, 1.0, 1.0 ],
									"bgfillcolor" : 									{
										"type" : "gradient",
										"color" : [ 0.341176, 0.027451, 0.023529, 1.0 ],
										"color1" : [ 0.0, 0.501961, 1.0, 1.0 ],
										"color2" : [ 0.4, 0.4, 1.0, 1.0 ],
										"angle" : 270.0,
										"proportion" : 0.39,
										"autogradient" : 0
									}
,
									"clearcolor" : [ 1.0, 1.0, 1.0, 0.0 ],
									"accentcolor" : [ 0.0, 0.0, 1.0, 1.0 ],
									"bgcolor" : [ 0.4, 0.4, 1.0, 1.0 ],
									"elementcolor" : [ 0.0, 1.0, 0.0, 1.0 ],
									"color" : [ 0.501961, 1.0, 0.0, 1.0 ]
								}
,
								"parentstyle" : "",
								"multi" : 0
							}
 ],
						"bgcolor" : [ 0.400004804134369, 0.80004358291626, 0.998939156532288, 1.0 ]
					}
,
					"patching_rect" : [ 844.0, 532.0, 47.0, 22.0 ],
					"saved_object_attributes" : 					{
						"description" : "",
						"digest" : "",
						"globalpatchername" : "",
						"locked_bgcolor" : [ 0.400004804134369, 0.80004358291626, 0.998939156532288, 1.0 ],
						"style" : "Sky",
						"tags" : ""
					}
,
					"text" : "p script"
				}

			}
, 			{
				"box" : 				{
					"id" : "obj-17",
					"maxclass" : "newobj",
					"numinlets" : 1,
					"numoutlets" : 1,
					"outlettype" : [ "" ],
					"patching_rect" : [ 844.0, 569.0, 85.0, 22.0 ],
					"text" : "prepend script"
				}

			}
, 			{
				"box" : 				{
					"id" : "obj-15",
					"maxclass" : "newobj",
					"numinlets" : 2,
					"numoutlets" : 1,
					"outlettype" : [ "" ],
					"patching_rect" : [ 844.0, 502.0, 68.0, 22.0 ],
					"text" : "pak 4096 4"
				}

			}
, 			{
				"box" : 				{
					"id" : "obj-11",
					"maxclass" : "newobj",
					"numinlets" : 3,
					"numoutlets" : 3,
					"outlettype" : [ "", "", "" ],
					"patching_rect" : [ 845.0, 465.0, 115.0, 22.0 ],
					"text" : "route fftSize overlap"
				}

			}
, 			{
				"box" : 				{
					"id" : "obj-7",
					"maxclass" : "newobj",
					"numinlets" : 1,
					"numoutlets" : 2,
					"outlettype" : [ "", "" ],
					"patching_rect" : [ 844.0, 603.0, 67.0, 22.0 ],
					"save" : [ "#N", "thispatcher", ";", "#Q", "end", ";" ],
					"text" : "thispatcher"
				}

			}
, 			{
				"box" : 				{
					"id" : "obj-6",
					"maxclass" : "newobj",
					"numinlets" : 2,
					"numoutlets" : 1,
					"outlettype" : [ "signal" ],
					"patching_rect" : [ 427.5, 387.0, 29.5, 22.0 ],
					"text" : "+~",
					"varname" : "out2"
				}

			}
, 			{
				"box" : 				{
					"id" : "obj-4",
					"maxclass" : "newobj",
					"numinlets" : 2,
					"numoutlets" : 1,
					"outlettype" : [ "signal" ],
					"patching_rect" : [ 10.0, 394.0, 29.5, 22.0 ],
					"text" : "+~",
					"varname" : "out1"
				}

			}
, 			{
				"box" : 				{
					"id" : "obj-1",
					"lastchannelcount" : 0,
					"maxclass" : "live.gain~",
					"numinlets" : 2,
					"numoutlets" : 5,
					"orientation" : 1,
					"outlettype" : [ "signal", "signal", "", "float", "list" ],
					"parameter_enable" : 1,
					"patching_rect" : [ 671.0, 185.0, 136.0, 47.0 ],
					"saved_attribute_attributes" : 					{
						"valueof" : 						{
							"parameter_mmax" : 6.0,
							"parameter_initial" : [ 0.0 ],
							"parameter_shortname" : "live.gain~",
							"parameter_type" : 0,
							"parameter_unitstyle" : 4,
							"parameter_mmin" : -70.0,
							"parameter_longname" : "live.gain~"
						}

					}
,
					"varname" : "live.gain~"
				}

			}
, 			{
				"box" : 				{
					"fontface" : 1,
					"fontsize" : 30.0,
					"id" : "obj-12",
					"maxclass" : "comment",
					"numinlets" : 1,
					"numoutlets" : 0,
					"patching_rect" : [ 4.0, 7.0, 383.0, 40.0 ],
					"text" : "Spectral Shuffle"
				}

			}
, 			{
				"box" : 				{
					"id" : "obj-8",
					"maxclass" : "ezdac~",
					"numinlets" : 2,
					"numoutlets" : 0,
					"patching_rect" : [ 14.0, 532.0, 45.0, 45.0 ]
				}

			}
, 			{
				"box" : 				{
					"data" : 					{
						"clips" : [ 							{
								"absolutepath" : "FemVoice.aif",
								"filename" : "FemVoice.aif",
								"filekind" : "audiofile",
								"loop" : 1,
								"content_state" : 								{
									"slurtime" : [ 0.0 ],
									"originaltempo" : [ 120.0 ],
									"pitchshift" : [ 1.0 ],
									"originallengthms" : [ 0.0 ],
									"pitchcorrection" : [ 0 ],
									"basictuning" : [ 440 ],
									"originallength" : [ 0.0, "ticks" ],
									"speed" : [ 1.0 ],
									"quality" : [ "basic" ],
									"timestretch" : [ 0 ],
									"formant" : [ 1.0 ],
									"followglobaltempo" : [ 0 ],
									"play" : [ 0 ],
									"mode" : [ "basic" ],
									"formantcorrection" : [ 0 ]
								}

							}
 ]
					}
,
					"id" : "obj-5",
					"maxclass" : "playlist~",
					"numinlets" : 1,
					"numoutlets" : 5,
					"outlettype" : [ "signal", "signal", "signal", "", "dictionary" ],
					"patching_rect" : [ 10.0, 54.0, 150.0, 30.0 ],
					"varname" : "in"
				}

			}
, 			{
				"box" : 				{
					"bgmode" : 0,
					"border" : 0,
					"clickthrough" : 0,
					"enablehscroll" : 0,
					"enablevscroll" : 0,
					"id" : "obj-2",
					"lockeddragscroll" : 0,
					"maxclass" : "bpatcher",
					"name" : "fftjit.readymade.spectralShuffle.maxpat",
					"numinlets" : 2,
					"numoutlets" : 3,
					"offset" : [ 0.0, 0.0 ],
					"outlettype" : [ "jit_matrix", "jit_matrix", "" ],
					"patching_rect" : [ 10.0, 152.0, 854.0, 174.0 ],
					"varname" : "shuffle",
					"viewvisibility" : 1
				}

			}
, 			{
				"box" : 				{
					"id" : "obj-82",
					"maxclass" : "newobj",
					"numinlets" : 1,
					"numoutlets" : 1,
					"outlettype" : [ "signal" ],
					"patching_rect" : [ 427.5, 342.0, 112.0, 22.0 ],
					"text" : "pfft~ fftjit.ifft 4096 8",
					"varname" : "fftOut2"
				}

			}
, 			{
				"box" : 				{
					"id" : "obj-83",
					"maxclass" : "newobj",
					"numinlets" : 1,
					"numoutlets" : 1,
					"outlettype" : [ "signal" ],
					"patching_rect" : [ 10.0, 351.0, 112.0, 22.0 ],
					"text" : "pfft~ fftjit.ifft 4096 8",
					"varname" : "fftOut1"
				}

			}
, 			{
				"box" : 				{
					"id" : "obj-84",
					"maxclass" : "newobj",
					"numinlets" : 1,
					"numoutlets" : 2,
					"outlettype" : [ "", "" ],
					"patching_rect" : [ 10.0, 110.0, 109.0, 22.0 ],
					"text" : "pfft~ fftjit.fft 4096 8",
					"varname" : "fftin"
				}

			}
 ],
		"lines" : [ 			{
				"patchline" : 				{
					"destination" : [ "obj-8", 1 ],
					"midpoints" : [ 709.75, 491.0, 49.5, 491.0 ],
					"source" : [ "obj-1", 1 ]
				}

			}
, 			{
				"patchline" : 				{
					"destination" : [ "obj-8", 0 ],
					"midpoints" : [ 680.5, 487.0, 23.5, 487.0 ],
					"source" : [ "obj-1", 0 ]
				}

			}
, 			{
				"patchline" : 				{
					"destination" : [ "obj-15", 1 ],
					"source" : [ "obj-11", 1 ]
				}

			}
, 			{
				"patchline" : 				{
					"destination" : [ "obj-15", 0 ],
					"source" : [ "obj-11", 0 ]
				}

			}
, 			{
				"patchline" : 				{
					"destination" : [ "obj-58", 0 ],
					"source" : [ "obj-15", 0 ]
				}

			}
, 			{
				"patchline" : 				{
					"destination" : [ "obj-7", 0 ],
					"source" : [ "obj-17", 0 ]
				}

			}
, 			{
				"patchline" : 				{
					"destination" : [ "obj-11", 0 ],
					"source" : [ "obj-2", 2 ]
				}

			}
, 			{
				"patchline" : 				{
					"destination" : [ "obj-82", 0 ],
					"source" : [ "obj-2", 1 ]
				}

			}
, 			{
				"patchline" : 				{
					"destination" : [ "obj-83", 0 ],
					"source" : [ "obj-2", 0 ]
				}

			}
, 			{
				"patchline" : 				{
					"destination" : [ "obj-1", 0 ],
					"midpoints" : [ 19.5, 445.0, 903.0, 445.0, 903.0, 126.0, 680.5, 126.0 ],
					"source" : [ "obj-4", 0 ]
				}

			}
, 			{
				"patchline" : 				{
					"destination" : [ "obj-84", 0 ],
					"source" : [ "obj-5", 0 ]
				}

			}
, 			{
				"patchline" : 				{
					"destination" : [ "obj-17", 0 ],
					"source" : [ "obj-58", 0 ]
				}

			}
, 			{
				"patchline" : 				{
					"destination" : [ "obj-1", 1 ],
					"midpoints" : [ 437.0, 429.0, 888.0, 429.0, 888.0, 143.0, 797.5, 143.0 ],
					"source" : [ "obj-6", 0 ]
				}

			}
, 			{
				"patchline" : 				{
					"destination" : [ "obj-6", 0 ],
					"source" : [ "obj-82", 0 ]
				}

			}
, 			{
				"patchline" : 				{
					"destination" : [ "obj-4", 0 ],
					"source" : [ "obj-83", 0 ]
				}

			}
, 			{
				"patchline" : 				{
					"destination" : [ "obj-2", 0 ],
					"source" : [ "obj-84", 0 ]
				}

			}
 ],
		"parameters" : 		{
			"obj-2::obj-141" : [ "Input Regression", "Input Regression", 0 ],
			"obj-2::obj-6" : [ "freeze synthisis", "freeze synthisis", 0 ],
			"obj-2::obj-50" : [ "panCenter", "Pan Center", 0 ],
			"obj-2::obj-143" : [ "Output Regression", "Output Regression", 0 ],
			"obj-1" : [ "live.gain~", "live.gain~", 0 ],
			"obj-2::obj-38" : [ "stepMode", "stepMode", 0 ],
			"obj-2::obj-140" : [ "Number of stored Grains", "Number of stored Grains", 0 ],
			"obj-2::obj-108" : [ "live.button[4]", "live.button[2]", 0 ],
			"obj-2::obj-132" : [ "granulationFreq", "granulation frequency", 0 ],
			"obj-2::obj-39" : [ "windowSize", "windowSize", 0 ],
			"obj-2::obj-59" : [ "randomPan", "Pan Random", 0 ],
			"obj-2::obj-148" : [ "GrainSize", "GrainSize", 0 ],
			"obj-2::obj-40" : [ "Overlap", "Overlap", 0 ],
			"obj-2::obj-25" : [ "newFrames", "OnOff", 0 ],
			"obj-2::obj-164" : [ "sampleRange[1]", "sampleRange", 0 ],
			"obj-2::obj-28" : [ "live.button[5]", "live.button[2]", 0 ],
			"obj-2::obj-109" : [ "live.button[3]", "live.button[2]", 0 ],
			"obj-2::obj-54" : [ "OnOff", "OnOff", 0 ],
			"parameterbanks" : 			{

			}

		}
,
		"dependency_cache" : [ 			{
				"name" : "fftjit.fft.maxpat",
				"bootpath" : "~/Documents/Max 8/Packages/FFTJIT/patchers",
				"patcherrelativepath" : "../patchers",
				"type" : "JSON",
				"implicit" : 1
			}
, 			{
				"name" : "fftjit.ifft.maxpat",
				"bootpath" : "~/Documents/Max 8/Packages/FFTJIT/patchers",
				"patcherrelativepath" : "../patchers",
				"type" : "JSON",
				"implicit" : 1
			}
, 			{
				"name" : "fftjit.readymade.spectralShuffle.maxpat",
				"bootpath" : "~/Documents/Max 8/Packages/FFTJIT/patchers",
				"patcherrelativepath" : "../patchers",
				"type" : "JSON",
				"implicit" : 1
			}
, 			{
				"name" : "fftjit.reg.maxpat",
				"bootpath" : "~/Documents/Max 8/Packages/FFTJIT/patchers",
				"patcherrelativepath" : "../patchers",
				"type" : "JSON",
				"implicit" : 1
			}
, 			{
				"name" : "fftjit.spectrumBank.maxpat",
				"bootpath" : "~/Documents/Max 8/Packages/FFTJIT/patchers",
				"patcherrelativepath" : "../patchers",
				"type" : "JSON",
				"implicit" : 1
			}
, 			{
				"name" : "fftjit.frameGrains.maxpat",
				"bootpath" : "~/Documents/Max 8/Packages/FFTJIT/patchers",
				"patcherrelativepath" : "../patchers",
				"type" : "JSON",
				"implicit" : 1
			}
, 			{
				"name" : "fftjit.poly.frameGrains.maxpat",
				"bootpath" : "~/Documents/Max 8/Packages/FFTJIT/patchers",
				"patcherrelativepath" : "../patchers",
				"type" : "JSON",
				"implicit" : 1
			}
, 			{
				"name" : "fftjit.plug.blank.maxpat",
				"bootpath" : "~/Documents/Max 8/Packages/FFTJIT/patchers",
				"patcherrelativepath" : "../patchers",
				"type" : "JSON",
				"implicit" : 1
			}
, 			{
				"name" : "fftjit.++.maxpat",
				"bootpath" : "~/Documents/Max 8/Packages/FFTJIT/patchers",
				"patcherrelativepath" : "../patchers",
				"type" : "JSON",
				"implicit" : 1
			}
, 			{
				"name" : "FemVoice.aif",
				"bootpath" : "C74:/patchers/m4l/Pluggo for Live resources/samples",
				"type" : "AIFF",
				"implicit" : 1
			}
 ],
		"autosave" : 0,
		"styles" : [ 			{
				"name" : "Sky",
				"default" : 				{
					"selectioncolor" : [ 0.862745, 0.870588, 0.878431, 1.0 ],
					"textcolor_inverse" : [ 1.0, 1.0, 1.0, 1.0 ],
					"patchlinecolor" : [ 0.0, 0.0, 0.0, 0.9 ],
					"textcolor" : [ 0.0, 0.0, 1.0, 1.0 ],
					"bgfillcolor" : 					{
						"type" : "gradient",
						"color" : [ 0.341176, 0.027451, 0.023529, 1.0 ],
						"color1" : [ 0.0, 0.501961, 1.0, 1.0 ],
						"color2" : [ 0.4, 0.4, 1.0, 1.0 ],
						"angle" : 270.0,
						"proportion" : 0.39,
						"autogradient" : 0
					}
,
					"clearcolor" : [ 1.0, 1.0, 1.0, 0.0 ],
					"accentcolor" : [ 0.0, 0.0, 1.0, 1.0 ],
					"bgcolor" : [ 0.4, 0.4, 1.0, 1.0 ],
					"elementcolor" : [ 0.0, 1.0, 0.0, 1.0 ],
					"color" : [ 0.501961, 1.0, 0.0, 1.0 ]
				}
,
				"parentstyle" : "",
				"multi" : 0
			}
 ],
		"bgcolor" : [ 0.4, 0.8, 1.0, 1.0 ],
		"editing_bgcolor" : [ 0.4, 0.8, 1.0, 1.0 ]
	}

}
